<svg width="121" height="78" viewBox="0 0 121 78" fill="none" xmlns="http://www.w3.org/2000/svg">
<path d="M35.0713 26.2722C39.2882 25.5221 43.4294 24.6963 47.5959 24.0723C53.8677 23.1394 59.7108 20.8387 65.6485 18.7839C69.0081 17.624 72.5191 16.7227 76.0363 16.2751C78.5324 15.9537 81.1672 16.4768 83.7074 16.8298C85.3148 17.0567 85.34 17.3152 85.0059 19.1179C79.5851 17.5925 74.1895 17.8636 68.8254 19.4646C74.2462 18.5695 79.6481 18.0275 84.9492 20.2525C84.2243 23.7004 82.4972 26.3982 79.8876 28.5161C76.2002 31.5039 71.977 33.3192 67.2432 33.5777C61.148 33.9117 56.6474 31.0122 53.3823 26.0389C52.9033 25.3078 52.4179 25.0367 51.5733 25.0745C48.2325 25.2132 45.0494 25.9444 41.9734 27.2555C40.5929 27.848 39.1621 28.3838 37.6997 28.7052C35.8844 29.1275 35.0839 28.3207 35.0713 26.2722Z" fill="#F65F5F"/>
<path d="M57.4733 20.3155C56.9312 18.601 56.5089 16.2184 57.7128 14.34C58.1477 13.6592 58.5133 13.4827 58.9104 12.9091C59.6857 11.7745 60.1522 9.68814 58.4314 5.50276C59.0239 5.92508 59.8055 6.60583 60.3413 7.65218C60.9527 8.8435 60.8708 9.76377 61.0599 10.7597C61.2805 11.9384 61.9423 13.5395 63.9278 15.2981C63.7198 14.6551 63.4992 13.7601 63.4488 12.6696C63.4047 11.598 63.537 10.6904 63.6883 10.0411C63.9152 10.703 64.2808 11.5476 64.886 12.4301C65.2894 13.0163 65.7054 13.489 66.0836 13.8609C65.5604 13.0919 64.867 11.8817 64.4132 10.2743C64.0665 9.04521 63.6883 6.99033 64.1737 4.53835C64.5897 2.43936 65.4721 0.895067 66.0836 0C66.0394 0.769001 66.0583 2.23766 66.8021 3.81979C67.943 6.25916 70.0231 7.33702 70.6219 7.63958C72.1221 8.39597 72.431 7.98626 75.3998 8.8372C77.7194 9.49905 78.8792 9.83312 79.9382 10.7471C80.5433 11.264 81.9489 12.6885 82.3271 15.7645C80.9656 15.5376 79.1251 15.3359 76.9505 15.4052C74.5174 15.4809 72.6894 15.8591 71.454 16.1238C69.563 16.5272 68.0439 17.0315 65.0057 18.0337C63.2408 18.6199 61.9801 19.08 59.7488 19.7041C58.797 19.9814 58.0091 20.1831 57.4733 20.3155Z" fill="#FDCE77"/>
<path d="M72.3932 15.6891C72.4247 15.79 73.8114 15.2353 75.7402 14.9706C78.0346 14.6554 80.0201 14.8949 81.4762 15.2101C81.4888 14.1637 81.1926 13.4389 80.9972 13.0607C80.4866 12.0584 79.6987 11.5037 78.8477 10.9112C78.1859 10.4448 77.5871 10.1422 77.1774 9.95312C77.7321 10.3881 78.4191 11.0121 79.0872 11.863C79.7806 12.7455 80.2281 13.5901 80.5181 14.252C79.5537 14.1007 78.1291 13.9809 76.4588 14.252C74.1959 14.6302 72.3553 15.5757 72.3932 15.6891Z" fill="#0D0D0D"/>
<g filter="url(#filter0_d_403_206)">
<path d="M36.58 40.64C36.6733 40.92 36.72 41.2267 36.72 41.56C36.72 41.88 36.7133 42.1267 36.7 42.3L36.68 43.2C36.68 43.4 36.6867 43.58 36.7 43.74C36.7133 43.8867 36.72 44.02 36.72 44.14C36.72 44.2733 36.5267 44.3733 36.14 44.44C35.7667 44.4933 35.24 44.5467 34.56 44.6C34.4667 44.6133 34.3733 44.62 34.28 44.62C34.2 44.62 34.1267 44.6267 34.06 44.64C33.9667 45.9867 33.92 47.36 33.92 48.76V49.56C33.3333 49.6267 32.5533 49.66 31.58 49.66C30.7267 49.66 30.2067 49.5933 30.02 49.46V49.2C29.8067 49.16 29.6733 49.1133 29.62 49.06C29.62 46.34 29.6267 44.3467 29.64 43.08L29.66 35.22C30.1133 35.1267 30.8867 35.0467 31.98 34.98C33.0733 34.9 34.14 34.86 35.18 34.86C36.7667 34.86 38.04 34.9733 39 35.2V35.52C39.0533 35.5467 39.1867 35.5733 39.4 35.6C39.4 35.9333 39.4067 36.2067 39.42 36.42L39.44 37.54C39.44 37.8467 39.42 38.3 39.38 38.9L37.54 39C35.82 39.0933 34.64 39.1667 34 39.22C33.92 39.5133 33.88 39.7467 33.88 39.92L33.86 40.14C33.86 40.2733 33.96 40.34 34.16 40.34C34.9867 40.34 35.66 40.3067 36.18 40.24C36.22 40.3333 36.2533 40.48 36.28 40.68L36.58 40.64ZM36.12 43.74C36.0933 43.4467 36.08 43.2 36.08 43L36.1 42.04C36.1133 41.84 36.12 41.56 36.12 41.2C36.12 40.8267 36.1 40.58 36.06 40.46C35.8333 40.5 35.5133 40.52 35.1 40.52C34.7 40.52 34.44 40.52 34.32 40.52C34.04 40.52 33.8267 40.5 33.68 40.46C33.5467 40.42 33.4467 40.3333 33.38 40.2C33.3133 40.0533 33.28 39.8267 33.28 39.52C33.28 39.1867 33.34 38.8933 33.46 38.64C34.0467 38.5867 35.1867 38.5133 36.88 38.42C37.4933 38.4067 38.1333 38.3733 38.8 38.32C38.8133 38.2 38.82 37.9867 38.82 37.68V36.86L38.8 35.36C38 35.16 36.7933 35.06 35.18 35.06C34.14 35.06 33.1067 35.1 32.08 35.18C31.0533 35.2467 30.3133 35.32 29.86 35.4V38.26L29.84 42.88C29.8267 43.72 29.82 45 29.82 46.72L29.84 48.98C29.9333 49.0333 30.38 49.06 31.18 49.06C32.1267 49.06 32.84 49.0333 33.32 48.98V48.36C33.3467 46.4667 33.4 45.04 33.48 44.08H33.5C33.7667 44.0267 34.1933 43.9733 34.78 43.92C35.3667 43.8667 35.7933 43.82 36.06 43.78C36.1 43.78 36.12 43.7667 36.12 43.74ZM38.0403 39.8C38.2403 39.3733 38.6336 39.0533 39.2203 38.84C39.8203 38.6267 40.4936 38.52 41.2403 38.52C41.347 38.5333 41.5936 38.54 41.9803 38.54L42.4603 38.52C42.967 38.52 43.4603 38.6 43.9403 38.76C44.4203 38.92 44.8203 39.1533 45.1403 39.46H45.1203C45.1603 39.5133 45.2203 39.5867 45.3003 39.68C45.3803 39.76 45.4536 39.82 45.5203 39.86L45.5003 39.84C45.8603 40.08 46.1003 40.56 46.2203 41.28C46.3536 42 46.4203 42.8933 46.4203 43.96C46.4203 44.9067 46.3603 45.8867 46.2403 46.9C46.1203 47.9133 45.9536 48.54 45.7403 48.78C45.4603 49.18 45.0803 49.4533 44.6003 49.6C44.1203 49.7467 43.5603 49.82 42.9203 49.82C42.2403 49.82 41.687 49.8 41.2603 49.76C40.847 49.72 40.4336 49.6067 40.0203 49.42C39.6203 49.2467 39.2336 48.9667 38.8603 48.58L38.6803 48.4C38.267 48.0133 37.987 47.52 37.8403 46.92C37.6936 46.3067 37.6203 45.5933 37.6203 44.78V44.06L37.6403 43.38C37.6403 43.22 37.6336 43.0667 37.6203 42.92C37.607 42.7733 37.6003 42.64 37.6003 42.52C37.6003 41.9467 37.6136 41.5133 37.6403 41.22C37.667 40.9267 37.767 40.5733 37.9403 40.16H37.9203C37.9336 40.08 37.947 40 37.9603 39.92C37.987 39.84 38.0136 39.7867 38.0403 39.76V39.78L38.0203 39.84L38.0403 39.8ZM37.8203 43.34V44.82C37.8203 45.9933 38.0136 46.9667 38.4003 47.74C38.8003 48.5 39.5136 48.9667 40.5403 49.14L41.4803 49.16C41.9336 49.1867 42.287 49.2 42.5403 49.2C43.167 49.2 43.7003 49.1333 44.1403 49C44.5803 48.8667 44.927 48.62 45.1803 48.26C45.407 48.0333 45.5536 47.5267 45.6203 46.74C45.7003 45.9533 45.767 44.8933 45.8203 43.56C45.8203 43.44 45.807 43.0133 45.7803 42.28C45.7536 41.5333 45.6736 40.94 45.5403 40.5C45.4203 40.0467 45.2403 39.7467 45.0003 39.6C44.4003 39.0133 43.527 38.72 42.3803 38.72L41.6203 38.74C41.447 38.74 41.3136 38.7333 41.2203 38.72C40.5403 38.72 39.9136 38.82 39.3403 39.02C38.767 39.22 38.3936 39.5067 38.2203 39.88C38.0736 40.4 37.967 40.86 37.9003 41.26C37.8336 41.66 37.8003 42.0733 37.8003 42.5L37.8203 43.34ZM41.9203 41.74C42.8536 41.74 43.3203 42.4333 43.3203 43.82C43.3203 44.3933 43.2936 44.8533 43.2403 45.2C43.187 45.5333 43.047 45.8067 42.8203 46.02C42.5936 46.2333 42.247 46.34 41.7803 46.34C41.3803 46.34 41.0536 46.2533 40.8003 46.08C40.547 45.9067 40.4203 45.6267 40.4203 45.24C40.4336 45.0667 40.4403 44.76 40.4403 44.32C40.4403 43.7067 40.4536 43.2333 40.4803 42.9C40.5203 42.5533 40.6003 42.3333 40.7203 42.24C40.987 41.9067 41.387 41.74 41.9203 41.74ZM41.2403 42.8C41.1336 42.8667 41.067 43.1733 41.0403 43.72C41.027 44.2533 41.0203 44.9 41.0203 45.66C41.0203 45.8733 41.087 46.0067 41.2203 46.06C41.3536 46.1133 41.5403 46.14 41.7803 46.14C42.5936 46.14 43.0003 45.86 43.0003 45.3C43.0803 44.58 43.1203 44.06 43.1203 43.74C43.1203 43.3 43.067 42.96 42.9603 42.72C42.867 42.48 42.6403 42.36 42.2803 42.36C42.2003 42.36 42.0536 42.3733 41.8403 42.4H41.8603C41.607 42.4667 41.4136 42.5867 41.2803 42.76L41.2403 42.8ZM47.0052 39.8C47.2052 39.3733 47.5985 39.0533 48.1852 38.84C48.7852 38.6267 49.4585 38.52 50.2052 38.52C50.3118 38.5333 50.5585 38.54 50.9452 38.54L51.4252 38.52C51.9318 38.52 52.4252 38.6 52.9052 38.76C53.3852 38.92 53.7852 39.1533 54.1052 39.46H54.0852C54.1252 39.5133 54.1852 39.5867 54.2652 39.68C54.3452 39.76 54.4185 39.82 54.4852 39.86L54.4652 39.84C54.8252 40.08 55.0652 40.56 55.1852 41.28C55.3185 42 55.3852 42.8933 55.3852 43.96C55.3852 44.9067 55.3252 45.8867 55.2052 46.9C55.0852 47.9133 54.9185 48.54 54.7052 48.78C54.4252 49.18 54.0452 49.4533 53.5652 49.6C53.0852 49.7467 52.5252 49.82 51.8852 49.82C51.2052 49.82 50.6518 49.8 50.2252 49.76C49.8118 49.72 49.3985 49.6067 48.9852 49.42C48.5852 49.2467 48.1985 48.9667 47.8252 48.58L47.6452 48.4C47.2318 48.0133 46.9518 47.52 46.8052 46.92C46.6585 46.3067 46.5852 45.5933 46.5852 44.78V44.06L46.6052 43.38C46.6052 43.22 46.5985 43.0667 46.5852 42.92C46.5718 42.7733 46.5652 42.64 46.5652 42.52C46.5652 41.9467 46.5785 41.5133 46.6052 41.22C46.6318 40.9267 46.7318 40.5733 46.9052 40.16H46.8852C46.8985 40.08 46.9118 40 46.9252 39.92C46.9518 39.84 46.9785 39.7867 47.0052 39.76V39.78L46.9852 39.84L47.0052 39.8ZM46.7852 43.34V44.82C46.7852 45.9933 46.9785 46.9667 47.3652 47.74C47.7652 48.5 48.4785 48.9667 49.5052 49.14L50.4452 49.16C50.8985 49.1867 51.2518 49.2 51.5052 49.2C52.1318 49.2 52.6652 49.1333 53.1052 49C53.5452 48.8667 53.8918 48.62 54.1452 48.26C54.3718 48.0333 54.5185 47.5267 54.5852 46.74C54.6652 45.9533 54.7318 44.8933 54.7852 43.56C54.7852 43.44 54.7718 43.0133 54.7452 42.28C54.7185 41.5333 54.6385 40.94 54.5052 40.5C54.3852 40.0467 54.2052 39.7467 53.9652 39.6C53.3652 39.0133 52.4918 38.72 51.3452 38.72L50.5852 38.74C50.4118 38.74 50.2785 38.7333 50.1852 38.72C49.5052 38.72 48.8785 38.82 48.3052 39.02C47.7318 39.22 47.3585 39.5067 47.1852 39.88C47.0385 40.4 46.9318 40.86 46.8652 41.26C46.7985 41.66 46.7652 42.0733 46.7652 42.5L46.7852 43.34ZM50.8852 41.74C51.8185 41.74 52.2852 42.4333 52.2852 43.82C52.2852 44.3933 52.2585 44.8533 52.2052 45.2C52.1518 45.5333 52.0118 45.8067 51.7852 46.02C51.5585 46.2333 51.2118 46.34 50.7452 46.34C50.3452 46.34 50.0185 46.2533 49.7652 46.08C49.5118 45.9067 49.3852 45.6267 49.3852 45.24C49.3985 45.0667 49.4052 44.76 49.4052 44.32C49.4052 43.7067 49.4185 43.2333 49.4452 42.9C49.4852 42.5533 49.5652 42.3333 49.6852 42.24C49.9518 41.9067 50.3518 41.74 50.8852 41.74ZM50.2052 42.8C50.0985 42.8667 50.0318 43.1733 50.0052 43.72C49.9918 44.2533 49.9852 44.9 49.9852 45.66C49.9852 45.8733 50.0518 46.0067 50.1852 46.06C50.3185 46.1133 50.5052 46.14 50.7452 46.14C51.5585 46.14 51.9652 45.86 51.9652 45.3C52.0452 44.58 52.0852 44.06 52.0852 43.74C52.0852 43.3 52.0318 42.96 51.9252 42.72C51.8318 42.48 51.6052 42.36 51.2452 42.36C51.1652 42.36 51.0185 42.3733 50.8052 42.4H50.8252C50.5718 42.4667 50.3785 42.5867 50.2452 42.76L50.2052 42.8ZM64.31 36.64C64.31 37.8533 64.3367 39.62 64.39 41.94C64.4033 42.5133 64.4167 43.22 64.43 44.06C64.4433 44.9 64.45 45.8667 64.45 46.96C64.45 48.1867 64.4433 49.06 64.43 49.58L63.23 49.6C62.9633 49.6133 62.57 49.62 62.05 49.62C61.81 49.62 61.6233 49.5933 61.49 49.54C61.37 49.4867 61.31 49.38 61.31 49.22V49.18L61.05 49.16L61.01 49.12C60.6633 49.4133 60.23 49.56 59.71 49.56C59.1233 49.56 58.6033 49.4533 58.15 49.24C57.71 49.0267 57.3433 48.7467 57.05 48.4C55.9967 47.56 55.47 45.86 55.47 43.3C55.47 42.2733 55.6167 41.3667 55.91 40.58C56.2033 39.7933 56.6433 39.2867 57.23 39.06C57.7233 38.86 58.3433 38.76 59.09 38.76C59.89 38.76 60.5033 38.8733 60.93 39.1L60.89 37.06C60.89 36.7533 60.9033 36.3867 60.93 35.96L60.99 35.16V34.94C60.99 34.8733 61.15 34.8067 61.47 34.74C61.8033 34.6733 62.1633 34.64 62.55 34.64C63.07 34.64 63.5233 34.68 63.91 34.76V35.1L64.31 35.16V36.64ZM63.83 48.98C63.8433 48.5133 63.85 47.7867 63.85 46.8C63.85 45.72 63.8433 44.76 63.83 43.92C63.8167 43.0667 63.8033 42.3467 63.79 41.76C63.7367 39.36 63.71 37.52 63.71 36.24V34.92C63.43 34.8667 63.0433 34.84 62.55 34.84C62.2167 34.84 61.9033 34.8533 61.61 34.88C61.33 34.8933 61.19 34.9133 61.19 34.94V35.16L61.15 35.86C61.1233 36.1133 61.11 36.5133 61.11 37.06V37.98C61.11 38.58 61.1167 39.0867 61.13 39.5C61.0767 39.3533 60.85 39.2267 60.45 39.12C60.05 39.0133 59.59 38.96 59.07 38.96C58.47 38.96 57.8767 39.0533 57.29 39.24C56.73 39.44 56.3167 39.9133 56.05 40.66C55.7967 41.4067 55.67 42.2867 55.67 43.3C55.6967 44.4467 55.79 45.4133 55.95 46.2C56.1233 46.9867 56.4767 47.6467 57.01 48.18C57.5567 48.7 58.3567 48.96 59.41 48.96C60.09 48.96 60.5833 48.6667 60.89 48.08C60.9033 48.0267 60.93 48 60.97 48C61.0233 48 61.07 48.1533 61.11 48.46C61.15 48.7667 61.1567 48.9333 61.13 48.96C61.4367 49 61.7767 49.02 62.15 49.02L63.03 49C63.2167 48.9867 63.4833 48.98 63.83 48.98ZM59.99 41.28C60.39 41.28 60.67 41.3333 60.83 41.44C60.99 41.5333 61.09 41.7267 61.13 42.02C61.1833 42.3133 61.21 42.8333 61.21 43.58C61.21 44.2467 61.1767 44.78 61.11 45.18C61.0567 45.58 60.9233 45.9 60.71 46.14C60.51 46.3667 60.1967 46.48 59.77 46.48C59.2233 46.48 58.7833 46.22 58.45 45.7C58.1167 45.18 57.95 44.5667 57.95 43.86C57.95 43.34 57.9967 42.9533 58.09 42.7C58.2367 41.7533 58.87 41.28 59.99 41.28ZM61.01 42.82C61.01 42.46 60.97 42.2133 60.89 42.08C60.8233 41.9467 60.6567 41.88 60.39 41.88C59.3767 41.88 58.81 42.2933 58.69 43.12L58.67 43.16C58.59 43.3467 58.55 43.6267 58.55 44C58.55 45.52 58.9567 46.28 59.77 46.28C60.1433 46.28 60.4167 46.1733 60.59 45.96C60.7767 45.7333 60.89 45.44 60.93 45.08C60.9833 44.7067 61.01 44.2067 61.01 43.58V42.82ZM68.1278 34.84H68.5278L68.5478 35.92C68.5745 36.6933 68.5878 37.2733 68.5878 37.66C68.4411 37.8867 68.1211 38 67.6278 38C67.5078 38 67.2478 37.9867 66.8478 37.96H66.8678L66.1878 37.94C65.9211 37.94 65.6878 37.9467 65.4878 37.96V37.54L65.0878 37.56C65.0878 37.3067 65.0745 36.9267 65.0478 36.42C65.0211 35.8067 65.0078 35.2667 65.0078 34.8V34.38L68.1278 34.44V34.84ZM65.2078 34.9C65.2078 35.3133 65.2211 35.8 65.2478 36.36C65.2745 36.8133 65.2878 37.14 65.2878 37.34H65.6278C65.8278 37.34 66.1145 37.3533 66.4878 37.38L67.2078 37.4C67.6478 37.4 67.9078 37.3333 67.9878 37.2C67.9878 36.7733 67.9745 36.1867 67.9478 35.44C67.9345 35.2 67.9278 34.9333 67.9278 34.64L65.2078 34.58V34.9ZM68.2078 39.18L68.6078 39.24C68.6078 40 68.5945 41.1533 68.5678 42.7C68.5278 43.86 68.5078 45.0467 68.5078 46.26C68.5078 47.4467 68.5345 48.4733 68.5878 49.34C68.4811 49.4467 68.3345 49.52 68.1478 49.56C67.9611 49.6 67.7211 49.62 67.4278 49.62C67.0411 49.62 66.7478 49.6133 66.5478 49.6H66.5678L66.0878 49.58C65.7945 49.58 65.5478 49.6133 65.3478 49.68C65.3478 49.5867 65.3611 49.42 65.3878 49.18C65.1878 49.2067 65.0411 49.24 64.9478 49.28C65.0145 48.3867 65.0478 47.4667 65.0478 46.52C65.0478 45.9867 65.0345 45.1867 65.0078 44.12C64.9811 43.0533 64.9678 42.24 64.9678 41.68C64.9678 40.7467 65.0145 39.7667 65.1078 38.74C65.2011 38.74 65.2678 38.7333 65.3078 38.72L65.6278 38.68C65.7345 38.68 65.9345 38.6933 66.2278 38.72C66.5345 38.7333 66.8611 38.74 67.2078 38.74H67.6678L68.2078 38.84V39.18ZM67.2078 38.94C66.7678 38.94 66.3478 38.9267 65.9478 38.9L65.3678 38.88H65.2878V38.9C65.2078 39.6067 65.1678 40.52 65.1678 41.64C65.1678 42.1467 65.1811 42.9467 65.2078 44.04C65.2345 45.1333 65.2478 45.9667 65.2478 46.54C65.2478 47.4467 65.2211 48.2667 65.1678 49C65.1945 48.9867 65.3011 48.98 65.4878 48.98C65.7678 48.98 65.9945 48.9867 66.1678 49L67.0678 49.02C67.3611 49.02 67.5745 49.0133 67.7078 49C67.8545 48.9867 67.9478 48.9467 67.9878 48.88C67.9345 47.9333 67.9078 46.86 67.9078 45.66C67.9078 44.3533 67.9278 43.06 67.9678 41.78C67.9945 40.5267 68.0078 39.6 68.0078 39V38.94H67.2078ZM72.3684 44.96C72.3684 45.3067 72.3884 45.5933 72.4284 45.82C72.4818 46.0333 72.5818 46.2667 72.7284 46.52V46.56C72.9018 46.6533 73.1151 46.7 73.3684 46.7C73.6484 46.7 73.8818 46.5733 74.0684 46.32C74.2551 46.0533 74.3484 45.66 74.3484 45.14V44.94C74.6418 44.9667 74.8618 44.98 75.0084 44.98L75.7084 44.96C75.8551 44.9467 76.0818 44.94 76.3884 44.94C76.6151 44.94 76.9151 44.9733 77.2884 45.04L77.2684 45.38L77.6884 45.44C77.6884 46.88 77.5284 47.9133 77.2084 48.54C76.9018 49.1667 76.5018 49.54 76.0084 49.66C75.5284 49.7933 74.7884 49.86 73.7884 49.86C72.9884 49.86 72.3484 49.8 71.8684 49.68C71.4018 49.5733 71.0018 49.32 70.6684 48.92C70.0551 48.4133 69.6018 47.6867 69.3084 46.74C69.0151 45.7933 68.8684 44.7667 68.8684 43.66C68.8684 42.3667 69.0218 41.3067 69.3284 40.48C69.6084 39.84 70.0951 39.3533 70.7884 39.02C71.4818 38.6733 72.2551 38.5 73.1084 38.5C74.1351 38.5 74.9951 38.72 75.6884 39.16C76.3951 39.6 76.9151 40.1933 77.2484 40.94C77.5951 41.6733 77.7684 42.48 77.7684 43.36C77.7684 43.44 77.7484 43.78 77.7084 44.38C77.4551 44.4467 76.7818 44.5067 75.6884 44.56C74.6084 44.6133 73.6484 44.64 72.8084 44.64C72.6084 44.64 72.4618 44.6333 72.3684 44.62V44.96ZM71.7684 43.98C71.9284 44.02 72.3884 44.04 73.1484 44.04C73.8818 44.04 74.6751 44.02 75.5284 43.98C76.3818 43.9267 76.9151 43.8733 77.1284 43.82C77.1551 43.42 77.1684 43.1333 77.1684 42.96C77.1684 41.6267 76.8684 40.5867 76.2684 39.84C75.6818 39.08 74.6284 38.7 73.1084 38.7C72.3084 38.7 71.5684 38.8667 70.8884 39.2C70.2218 39.52 69.7618 39.9667 69.5084 40.54C69.2018 41.3667 69.0484 42.4733 69.0484 43.86C69.0484 45.2467 69.2818 46.4467 69.7484 47.46C70.2151 48.4733 70.9418 49.0533 71.9284 49.2L72.8084 49.22C73.2618 49.2467 73.6151 49.26 73.8684 49.26C74.4951 49.26 75.0284 49.1933 75.4684 49.06C75.9218 48.9267 76.2751 48.68 76.5284 48.32C76.7018 48.1733 76.8218 47.8667 76.8884 47.4C76.9551 46.92 77.0218 46.1867 77.0884 45.2C76.8884 45.16 76.6284 45.14 76.3084 45.14L75.5284 45.16C75.3684 45.1733 75.1484 45.18 74.8684 45.18C74.7084 45.18 74.6084 45.1733 74.5684 45.16V45.32C74.5684 45.84 74.4484 46.2333 74.2084 46.5C73.9818 46.7667 73.7018 46.9 73.3684 46.9C72.3418 46.9 71.8084 46.0467 71.7684 44.34V43.98ZM74.9684 42.4C74.9684 42.44 74.9218 42.46 74.8284 42.46C74.7618 42.46 74.6284 42.4533 74.4284 42.44C74.2284 42.4267 73.9884 42.42 73.7084 42.42L72.4084 42.44C72.1551 42.44 71.9884 42.4267 71.9084 42.4C71.8284 42.3733 71.7884 42.3133 71.7884 42.22C71.7884 41.1933 72.3551 40.68 73.4884 40.68C73.7418 40.68 73.9751 40.7467 74.1884 40.88C74.4284 41 74.6151 41.18 74.7484 41.42C74.8951 41.66 74.9684 41.9133 74.9684 42.18V42.4ZM74.4884 41.44C74.3151 41.3333 74.1151 41.28 73.8884 41.28C73.4218 41.28 73.0818 41.36 72.8684 41.52C72.6684 41.68 72.5284 41.92 72.4484 42.24L72.8284 42.22H73.7084L74.5684 42.24L74.7684 42.26V42.18C74.7684 41.8733 74.6818 41.6333 74.5084 41.46L74.4884 41.44ZM89.1191 40.64C89.2124 40.92 89.2591 41.2267 89.2591 41.56C89.2591 41.88 89.2524 42.1267 89.2391 42.3L89.2191 43.2C89.2191 43.4 89.2257 43.58 89.2391 43.74C89.2524 43.8867 89.2591 44.02 89.2591 44.14C89.2591 44.2733 89.0657 44.3733 88.6791 44.44C88.3057 44.4933 87.7791 44.5467 87.0991 44.6C87.0057 44.6133 86.9124 44.62 86.8191 44.62C86.7391 44.62 86.6657 44.6267 86.5991 44.64C86.5057 45.9867 86.4591 47.36 86.4591 48.76V49.56C85.8724 49.6267 85.0924 49.66 84.1191 49.66C83.2657 49.66 82.7457 49.5933 82.5591 49.46V49.2C82.3457 49.16 82.2124 49.1133 82.1591 49.06C82.1591 46.34 82.1657 44.3467 82.1791 43.08L82.1991 35.22C82.6524 35.1267 83.4257 35.0467 84.5191 34.98C85.6124 34.9 86.6791 34.86 87.7191 34.86C89.3057 34.86 90.5791 34.9733 91.5391 35.2V35.52C91.5924 35.5467 91.7257 35.5733 91.9391 35.6C91.9391 35.9333 91.9457 36.2067 91.9591 36.42L91.9791 37.54C91.9791 37.8467 91.9591 38.3 91.9191 38.9L90.0791 39C88.3591 39.0933 87.1791 39.1667 86.5391 39.22C86.4591 39.5133 86.4191 39.7467 86.4191 39.92L86.3991 40.14C86.3991 40.2733 86.4991 40.34 86.6991 40.34C87.5257 40.34 88.1991 40.3067 88.7191 40.24C88.7591 40.3333 88.7924 40.48 88.8191 40.68L89.1191 40.64ZM88.6591 43.74C88.6324 43.4467 88.6191 43.2 88.6191 43L88.6391 42.04C88.6524 41.84 88.6591 41.56 88.6591 41.2C88.6591 40.8267 88.6391 40.58 88.5991 40.46C88.3724 40.5 88.0524 40.52 87.6391 40.52C87.2391 40.52 86.9791 40.52 86.8591 40.52C86.5791 40.52 86.3657 40.5 86.2191 40.46C86.0857 40.42 85.9857 40.3333 85.9191 40.2C85.8524 40.0533 85.8191 39.8267 85.8191 39.52C85.8191 39.1867 85.8791 38.8933 85.9991 38.64C86.5857 38.5867 87.7257 38.5133 89.4191 38.42C90.0324 38.4067 90.6724 38.3733 91.3391 38.32C91.3524 38.2 91.3591 37.9867 91.3591 37.68V36.86L91.3391 35.36C90.5391 35.16 89.3324 35.06 87.7191 35.06C86.6791 35.06 85.6457 35.1 84.6191 35.18C83.5924 35.2467 82.8524 35.32 82.3991 35.4V38.26L82.3791 42.88C82.3657 43.72 82.3591 45 82.3591 46.72L82.3791 48.98C82.4724 49.0333 82.9191 49.06 83.7191 49.06C84.6657 49.06 85.3791 49.0333 85.8591 48.98V48.36C85.8857 46.4667 85.9391 45.04 86.0191 44.08H86.0391C86.3057 44.0267 86.7324 43.9733 87.3191 43.92C87.9057 43.8667 88.3324 43.82 88.5991 43.78C88.6391 43.78 88.6591 43.7667 88.6591 43.74ZM95.1219 34.72H95.5219C95.5219 35.3333 95.5085 36.7467 95.4819 38.96C95.4685 39.6133 95.4552 40.4733 95.4419 41.54C95.4285 42.6067 95.4219 43.8533 95.4219 45.28C95.4219 47.12 95.4485 48.4733 95.5019 49.34C95.3952 49.4467 95.2485 49.52 95.0619 49.56C94.8752 49.6 94.6352 49.62 94.3419 49.62C93.9552 49.62 93.6619 49.6133 93.4619 49.6H93.4819L93.0019 49.58C92.7085 49.58 92.4619 49.6133 92.2619 49.68L92.2819 49.2C92.1219 49.2 91.9819 49.2267 91.8619 49.28C91.9552 47.9733 92.0019 46.7667 92.0019 45.66C92.0019 44.8467 91.9752 43.6 91.9219 41.92C91.8685 40.2667 91.8419 39.0067 91.8419 38.14C91.8419 36.74 91.9019 35.4467 92.0219 34.26L95.1219 34.32V34.72ZM92.2019 34.46C92.0819 35.74 92.0219 37.0133 92.0219 38.28C92.0219 39.4267 92.0552 40.6867 92.1219 42.06C92.1752 43.74 92.2019 44.9867 92.2019 45.8C92.2019 46.8667 92.1619 47.9333 92.0819 49C92.1085 48.9867 92.2152 48.98 92.4019 48.98C92.6819 48.98 92.9085 48.9867 93.0819 49L93.9819 49.02C94.2752 49.02 94.4885 49.0133 94.6219 49C94.7685 48.9867 94.8619 48.9467 94.9019 48.88C94.8619 48.2267 94.8419 46.8867 94.8419 44.86C94.8419 43.3267 94.8552 41.2267 94.8819 38.56L94.9219 34.52L92.2019 34.46ZM99.323 40.34C99.6696 42.42 99.9696 43.9733 100.223 45L100.403 43.52C100.43 43.3467 100.49 42.8867 100.583 42.14C100.676 41.3933 100.783 40.74 100.903 40.18C101.023 39.6067 101.156 39.1533 101.303 38.82L102.263 38.8C102.476 38.7867 102.796 38.78 103.223 38.78C103.356 38.78 103.823 38.8 104.623 38.84C104.596 38.9067 104.563 39.0333 104.523 39.22L105.023 39.24C104.396 41.6933 103.883 43.8333 103.483 45.66C103.15 47.1933 102.77 48.4667 102.343 49.48C101.93 50.5067 101.25 51.3733 100.303 52.08C99.3696 52.8 98.0963 53.16 96.483 53.16H96.263C96.0496 53.16 95.8496 53.1467 95.663 53.12C95.6496 53.0667 95.6363 53 95.623 52.92C95.6096 52.8533 95.5763 52.8 95.523 52.76C95.4696 52.7333 95.383 52.72 95.263 52.72C95.0896 52.1333 95.003 51.5533 95.003 50.98C95.003 50.5 95.043 50.0667 95.123 49.68L96.003 49.7C96.1363 49.7133 96.3296 49.72 96.583 49.72C96.9563 49.72 97.243 49.66 97.443 49.54C97.643 49.42 97.743 49.1933 97.743 48.86C97.743 48.74 97.7363 48.6333 97.723 48.54V48.56C97.2696 46.08 96.4696 42.8067 95.323 38.74C95.7363 38.8067 96.0763 38.84 96.343 38.84L97.103 38.82H97.743C98.1296 38.82 98.4096 38.8333 98.583 38.86L98.763 39.02C98.763 39.1133 98.7763 39.18 98.803 39.22C98.8296 39.2467 98.8896 39.26 98.983 39.26L99.163 39.42L99.323 40.34ZM96.483 39.04H96.123C95.8963 39.04 95.723 39.0267 95.603 39C95.7496 39.4933 95.863 39.92 95.943 40.28C96.423 42.0133 96.8163 43.5133 97.123 44.78C97.443 46.0333 97.7096 47.28 97.923 48.52C97.9363 48.6133 97.943 48.7333 97.943 48.88C97.943 49.28 97.8163 49.5533 97.563 49.7C97.323 49.8467 96.9896 49.92 96.563 49.92C96.2963 49.92 96.0896 49.9133 95.943 49.9L95.303 49.88C95.2363 50.24 95.203 50.6067 95.203 50.98C95.203 51.5933 95.2763 52.1133 95.423 52.54C95.5696 52.5533 95.7896 52.56 96.083 52.56C97.7096 52.56 98.9763 52.2067 99.883 51.5C100.803 50.8067 101.456 49.9667 101.843 48.98C102.23 47.98 102.59 46.6867 102.923 45.1C103.07 44.38 103.196 43.8267 103.303 43.44L103.483 42.7C103.79 41.34 104.083 40.1133 104.363 39.02C104.136 39.0067 103.823 39 103.423 39L101.703 39.02H101.443C101.296 39.38 101.17 39.8533 101.063 40.44C100.97 41.0133 100.863 41.8 100.743 42.8C100.61 43.7733 100.503 44.5067 100.423 45C100.343 45.4933 100.243 45.9133 100.123 46.26C99.7896 45.34 99.363 43.4467 98.843 40.58L98.563 39.06C98.2163 39.0333 97.943 39.02 97.743 39.02L96.483 39.04Z" fill="white"/>
</g>
<defs>
<filter id="filter0_d_403_206" x="25.6201" y="34.2598" width="83.4028" height="26.9004" filterUnits="userSpaceOnUse" color-interpolation-filters="sRGB">
<feFlood flood-opacity="0" result="BackgroundImageFix"/>
<feColorMatrix in="SourceAlpha" type="matrix" values="0 0 0 0 0 0 0 0 0 0 0 0 0 0 0 0 0 0 127 0" result="hardAlpha"/>
<feOffset dy="4"/>
<feGaussianBlur stdDeviation="2"/>
<feComposite in2="hardAlpha" operator="out"/>
<feColorMatrix type="matrix" values="0 0 0 0 0 0 0 0 0 0 0 0 0 0 0 0 0 0 0.25 0"/>
<feBlend mode="normal" in2="BackgroundImageFix" result="effect1_dropShadow_403_206"/>
<feBlend mode="normal" in="SourceGraphic" in2="effect1_dropShadow_403_206" result="shape"/>
</filter>
</defs>
</svg>
